# xmcd
#
# Track frame offsets: 
#        150
#        12674
#        25949
#        39166
#        52982
#        66686
#        82183
#        95648
#        108043
#        123042
#        138028
#        151130
#        163644
#        177811
#        191158
#        204489
#        217369
#        232441
#
# Disc length: 3291 seconds
#
# Revision: 0
# Processed by: cddbd v1.5.2PL0 Copyright (c) Steve Scherf et al.
# Submitted via: ExactAudioCopy v0.99pb5
#
DISCID=000cd912
DTITLE=Bumble Bee Slim - From Georgia To Chicago 1931 - 1937, Disc 2
DYEAR=1998
DGENRE=
TTITLE0=No more biscuits rolling here
TTITLE1=Meet me in the bottom
TTITLE2=When the music sounds good
TTITLE3=New policy dream blues
TTITLE4=Any time at night
TTITLE5=I'se gonna break em down
TTITLE6=Please baby
TTITLE7=The jive of mine
TTITLE8=Slave man blues
TTITLE9=My big moments
TTITLE10=Meet me at the landing
TTITLE11=Rough treatment
TTITLE12=Rising river blues
TTITLE13=She never
TTITLE14=12 o'clock southern train
TTITLE15=You sure look good to me
TTITLE16=Woman for every man
TTITLE17=Going back to florida
EXTD=
EXTT0=
EXTT1=
EXTT2=
EXTT3=
EXTT4=
EXTT5=
EXTT6=
EXTT7=
EXTT8=
EXTT9=
EXTT10=
EXTT11=
EXTT12=
EXTT13=
EXTT14=
EXTT15=
EXTT16=
EXTT17=
PLAYORDER=
